<?xml version="1.0" encoding="utf-8"?>
<!-- Generator: Adobe Illustrator 22.1.0, SVG Export Plug-In . SVG Version: 6.00 Build 0)  -->
<svg version="1.1" xmlns="http://www.w3.org/2000/svg" xmlns:xlink="http://www.w3.org/1999/xlink" x="0px" y="0px"
	 viewBox="0 0 1246 960" style="enable-background:new 0 0 1246 960;" xml:space="preserve">
<style type="text/css">
	.st0{fill:none;stroke:#FF0000;stroke-width:2;stroke-miterlimit:10;}
</style>
<g id="Background">
	<line class="st0" x1="354.4" y1="772.9" x2="99.2" y2="772.9"/>
	<line class="st0" x1="354.6" y1="330.8" x2="99.4" y2="330.8"/>
	<line class="st0" x1="354.8" y1="773.2" x2="354.8" y2="331"/>
	<line class="st0" x1="99.8" y1="773.3" x2="99.8" y2="330.8"/>
	
		<rect x="315.7" y="575.4" transform="matrix(6.123234e-17 -1 1 6.123234e-17 -258.3122 929.3703)" class="st0" width="39.7" height="36.9"/>
	<line class="st0" x1="609.6" y1="330.8" x2="354.4" y2="330.8"/>
	<line class="st0" x1="609.8" y1="773.2" x2="609.8" y2="331"/>
	<line class="st0" x1="609.4" y1="772.9" x2="354.2" y2="772.9"/>
	<line class="st0" x1="893.8" y1="773.3" x2="893.8" y2="330.8"/>
	<line class="st0" x1="893.5" y1="772.9" x2="610.1" y2="772.9"/>
	<line class="st0" x1="893.7" y1="330.8" x2="610.3" y2="330.8"/>
	<line class="st0" x1="99.4" y1="331" x2="99.4" y2="237.5"/>
	<circle class="st0" cx="339.7" cy="312.9" r="3.5"/>
	<circle class="st0" cx="175.3" cy="312.9" r="3.5"/>
	<circle class="st0" cx="175.3" cy="246.3" r="3.5"/>
	<circle class="st0" cx="339.7" cy="246.3" r="3.5"/>
	<line class="st0" x1="355.4" y1="331" x2="355.4" y2="237.5"/>
	<line class="st0" x1="355" y1="238" x2="99.8" y2="238"/>
	<line class="st0" x1="609" y1="238" x2="353.8" y2="238"/>
	<line class="st0" x1="609.4" y1="331" x2="609.4" y2="237.5"/>
	<line class="st0" x1="1149.6" y1="630.8" x2="894.4" y2="630.8"/>
	<line class="st0" x1="1148.8" y1="772.9" x2="1148.8" y2="631.2"/>
	<line class="st0" x1="1149.6" y1="772.8" x2="894.4" y2="772.8"/>
	<line class="st0" x1="1148.8" y1="630.9" x2="1148.8" y2="489.2"/>
	<line class="st0" x1="1149.6" y1="488.8" x2="894.4" y2="488.8"/>
	<line class="st0" x1="610.3" y1="316.1" x2="624.5" y2="316.1"/>
	<line class="st0" x1="624.4" y1="316.2" x2="624.4" y2="302"/>
	<line class="st0" x1="624.3" y1="302.1" x2="638.5" y2="302.1"/>
	<line class="st0" x1="638.4" y1="331" x2="638.4" y2="302"/>
	<line class="st0" x1="609.9" y1="287.5" x2="638.9" y2="287.5"/>
	<line class="st0" x1="638.4" y1="302.2" x2="638.4" y2="288"/>
	<line class="st0" x1="610.3" y1="272.1" x2="624.5" y2="272.1"/>
	<line class="st0" x1="624.4" y1="272.2" x2="624.4" y2="258"/>
	<line class="st0" x1="624.3" y1="258.1" x2="638.5" y2="258.1"/>
	<line class="st0" x1="638.4" y1="287" x2="638.4" y2="258"/>
	<line class="st0" x1="638.4" y1="258.2" x2="638.4" y2="244"/>
	<line class="st0" x1="609.9" y1="243.5" x2="638.9" y2="243.5"/>
</g>
<g id="Objects">
</g>
</svg>
